<svg t="1622107641858" class="icon" viewBox="0 0 1981 1024" version="1.1" xmlns="http://www.w3.org/2000/svg" p-id="8126" width="42" height="42"><path d="M49.548387 990.967742h1684.645161v-66.064516H49.548387z" fill="#D0D7DC" p-id="8127"></path><path d="M1734.193548 545.032258H132.129032L326.969806 132.129032H1734.193548z" fill="#FFD338" p-id="8128"></path><path d="M578.064516 429.419355H280.774194l97.742451-181.67742H578.064516z" fill="#F9EFCC" p-id="8129"></path><path d="M693.677419 578.064516h1040.516129V0H693.677419z" fill="#FABC3B" p-id="8130"></path><path d="M115.612903 693.677419H16.516129l19.290839-66.064516H115.612903z" fill="#091116" p-id="8131"></path><path d="M575.966968 855.485935c0 80.763871-67.336258 146.266839-150.412387 146.266839-83.076129 0-150.395871-65.486452-150.395871-146.266839C275.15871 774.689032 342.494968 709.202581 425.538065 709.202581c83.076129 0 150.412387 65.486452 150.412387 146.283354" fill="#444642" p-id="8132"></path><path d="M514.246194 855.485935c0 47.616-39.704774 86.23071-88.691613 86.23071-48.970323 0-88.658581-38.61471-88.658581-86.23071 0-47.632516 39.688258-86.247226 88.658581-86.247225 48.986839 0 88.691613 38.61471 88.691613 86.247225" fill="#9D9D9D" p-id="8133"></path><path d="M1401.297926 707.460075c80.714672-2.818618 148.527738 62.1906 151.426477 145.199615 2.899315 83.025521-60.197819 152.589698-140.928996 155.408893C1331.047723 1010.888354 1263.251739 945.895066 1260.352424 862.869544s60.197819-152.589698 140.945502-155.409469" fill="#444642" p-id="8134"></path><path d="M1490.663226 855.485935c0 47.616-39.704774 86.23071-88.675097 86.23071s-88.675097-38.61471-88.675097-86.23071c0-47.632516 39.704774-86.247226 88.691613-86.247225 48.953806 0 88.658581 38.61471 88.658581 86.247225" fill="#9D9D9D" p-id="8135"></path><path d="M1313.313032 870.284387h177.350194V840.670968H1313.313032z" fill="#BCD6E9" p-id="8136"></path><path d="M93.646452 454.077935L0 860.093935h255.686194c-0.033032-1.536-0.115613-3.072-0.115613-4.624516 0-91.301161 76.106323-165.326452 170.000516-165.326451 93.877677 0 169.984 74.02529 169.984 165.326451 0 1.552516-0.066065 3.088516-0.115613 4.624516h636.680258c-0.049548-1.536-0.115613-3.072-0.115613-4.624516 0-91.301161 76.106323-165.326452 170.000516-165.326451 93.877677 0 169.984 74.02529 169.984 165.326451 0 1.552516-0.082581 3.088516-0.115613 4.624516h160.371613V454.077935H93.629935z" fill="#FFD338" p-id="8137"></path><path d="M336.896 870.284387h177.350194V840.670968H336.896z" fill="#BCD6E9" p-id="8138"></path><path d="M1979.012129 793.368774c0 36.56671-30.472258 66.196645-68.046452 66.196645-37.607226 0-120.204387-66.196645-120.204387-66.196645s82.597161-66.196645 120.187871-66.196645 68.062968 29.646452 68.062968 66.196645" fill="#D0D7DC" p-id="8139"></path></svg>
